<?xml version="1.0" encoding="utf-8"?>
<!-- Svg Vector Icons : http://www.onlinewebfonts.com/icon -->
<!DOCTYPE svg PUBLIC "-//W3C//DTD SVG 1.1//EN" "http://www.w3.org/Graphics/SVG/1.1/DTD/svg11.dtd">
<svg version="1.1" xmlns="http://www.w3.org/2000/svg" xmlns:xlink="http://www.w3.org/1999/xlink" x="0px" y="0px" viewBox="0 0 1000 1000" enable-background="new 0 0 1000 1000" xml:space="preserve">
<metadata> Svg Vector Icons : http://www.onlinewebfonts.com/icon </metadata>
<g><path d="M990,84.9l-118.5,94.9C781.7,75.6,649,9.4,500.6,9.4C229.7,9.4,10,229.1,10,500c0,270.9,219.7,490.6,490.6,490.6c96.5,0,186.3-28.3,262.3-76.5L651.6,802.8c-45.7,22.9-96.5,37-151.1,37c-187.4,0-339.4-152.1-339.4-339.8c0-187.7,152-339.8,339.4-339.8c101,0,190.4,44.7,251.8,115.1L613,386.8l216.5,43.4c0,0,0,0,0,0.1l159.2,31.9c0,0.1,0,0.1,0,0.2h0.4c0,0,0-0.1,0-0.2l0.8,0.2L990,84.9L990,84.9z"/></g>
</svg>